<svg width="401" height="281" viewBox="0 0 401 281" fill="none" xmlns="http://www.w3.org/2000/svg">
<line x1="54.5321" y1="58" x2="54.5321" y2="254" stroke="#F6F7FB" stroke-width="1.06425"/>
<line x1="124.905" y1="58" x2="124.905" y2="254" stroke="#F6F7FB" stroke-width="1.06425"/>
<line x1="195.276" y1="58" x2="195.276" y2="254" stroke="#F6F7FB" stroke-width="1.06425"/>
<line x1="265.649" y1="58" x2="265.649" y2="254" stroke="#F6F7FB" stroke-width="1.06425"/>
<line x1="336.02" y1="58" x2="336.02" y2="254" stroke="#F6F7FB" stroke-width="1.06425"/>
<line x1="400.393" y1="58" x2="400.393" y2="254" stroke="#F6F7FB" stroke-width="1.06425"/>
<line x1="54" y1="57.4391" x2="401" y2="57.4391" stroke="#F6F7FB" stroke-width="1.12182"/>
<line x1="54" y1="106.439" x2="400" y2="106.439" stroke="#F6F7FB" stroke-width="1.12182"/>
<line x1="54" y1="155.439" x2="400" y2="155.439" stroke="#F6F7FB" stroke-width="1.12182"/>
<line x1="54" y1="204.439" x2="400" y2="204.439" stroke="#F6F7FB" stroke-width="1.12182"/>
<line x1="54" y1="253.439" x2="400" y2="253.439" stroke="#F6F7FB" stroke-width="1.12182"/>
<path d="M53.2871 274.683H54.5107C54.5381 275.517 55.1738 276.098 56.0693 276.098C57.1562 276.098 57.7441 275.448 57.7441 274.245V267.136H58.9746V274.252C58.9746 276.125 57.8945 277.232 56.0762 277.232C54.4355 277.232 53.2871 276.18 53.2871 274.683ZM63.0488 276.111C64.1699 276.111 65.0312 275.325 65.0312 274.3V273.719L63.1309 273.835C62.1738 273.896 61.627 274.32 61.627 274.99C61.627 275.667 62.1943 276.111 63.0488 276.111ZM62.7822 277.123C61.3672 277.123 60.417 276.269 60.417 274.99C60.417 273.773 61.3535 273.008 62.9941 272.912L65.0312 272.796V272.201C65.0312 271.333 64.457 270.813 63.4727 270.813C62.5566 270.813 61.9824 271.244 61.832 271.941H60.6836C60.7656 270.711 61.8184 269.768 63.5 269.768C65.168 269.768 66.2207 270.67 66.2207 272.085V277H65.0928V275.776H65.0654C64.6416 276.59 63.7393 277.123 62.7822 277.123ZM67.7314 277V269.891H68.8525V271.025H68.8799C69.2764 270.26 70.0352 269.768 71.1357 269.768C72.6943 269.768 73.5967 270.772 73.5967 272.386V277H72.4072V272.598C72.4072 271.449 71.8672 270.82 70.7734 270.82C69.6523 270.82 68.9209 271.613 68.9209 272.816V277H67.7314Z" fill="#8E98A7"/>
<path d="M116.188 277H114.957V267.136H120.945V268.243H116.188V271.634H120.556V272.728H116.188V277ZM124.746 270.8C123.632 270.8 122.853 271.654 122.777 272.837H126.64C126.612 271.647 125.867 270.8 124.746 270.8ZM126.612 274.963H127.781C127.576 276.207 126.373 277.123 124.821 277.123C122.784 277.123 121.547 275.708 121.547 273.473C121.547 271.265 122.805 269.768 124.767 269.768C126.688 269.768 127.87 271.162 127.87 273.315V273.767H122.771V273.835C122.771 275.195 123.57 276.091 124.849 276.091C125.751 276.091 126.414 275.633 126.612 274.963ZM132.607 277.123C131.568 277.123 130.755 276.617 130.297 275.797H130.27V277H129.135V267.136H130.324V271.08H130.352C130.796 270.267 131.623 269.768 132.628 269.768C134.419 269.768 135.629 271.217 135.629 273.445C135.629 275.681 134.426 277.123 132.607 277.123ZM132.375 270.813C131.172 270.813 130.317 271.866 130.317 273.445C130.317 275.031 131.172 276.077 132.375 276.077C133.633 276.077 134.412 275.072 134.412 273.445C134.412 271.832 133.633 270.813 132.375 270.813Z" fill="#8E98A7"/>
<path d="M185.678 277H184.529V269.398H184.481L181.337 276.932H180.298L177.153 269.398H177.105V277H175.957V267.136H177.386L180.79 275.366H180.845L184.249 267.136H185.678V277ZM189.547 276.111C190.668 276.111 191.529 275.325 191.529 274.3V273.719L189.629 273.835C188.672 273.896 188.125 274.32 188.125 274.99C188.125 275.667 188.692 276.111 189.547 276.111ZM189.28 277.123C187.865 277.123 186.915 276.269 186.915 274.99C186.915 273.773 187.852 273.008 189.492 272.912L191.529 272.796V272.201C191.529 271.333 190.955 270.813 189.971 270.813C189.055 270.813 188.48 271.244 188.33 271.941H187.182C187.264 270.711 188.316 269.768 189.998 269.768C191.666 269.768 192.719 270.67 192.719 272.085V277H191.591V275.776H191.563C191.14 276.59 190.237 277.123 189.28 277.123ZM194.229 277V269.891H195.351V271.053H195.378C195.61 270.267 196.267 269.768 197.101 269.768C197.306 269.768 197.483 269.802 197.579 269.815V270.971C197.483 270.937 197.23 270.902 196.943 270.902C196.021 270.902 195.419 271.565 195.419 272.57V277H194.229Z" fill="#8E98A7"/>
<path d="M244.369 277L243.378 274.177H239.454L238.463 277H237.171L240.808 267.136H242.024L245.661 277H244.369ZM241.396 268.633L239.816 273.131H243.016L241.437 268.633H241.396ZM250.057 269.768C251.868 269.768 253.099 271.217 253.099 273.445C253.099 275.674 251.875 277.123 250.084 277.123C249.065 277.123 248.245 276.624 247.821 275.845H247.794V279.372H246.604V269.891H247.732V271.094H247.76C248.197 270.294 249.024 269.768 250.057 269.768ZM249.824 276.077C251.089 276.077 251.882 275.059 251.882 273.445C251.882 271.839 251.089 270.813 249.824 270.813C248.607 270.813 247.787 271.866 247.787 273.445C247.787 275.031 248.607 276.077 249.824 276.077ZM254.302 277V269.891H255.423V271.053H255.45C255.683 270.267 256.339 269.768 257.173 269.768C257.378 269.768 257.556 269.802 257.651 269.815V270.971C257.556 270.937 257.303 270.902 257.016 270.902C256.093 270.902 255.491 271.565 255.491 272.57V277H254.302Z" fill="#8E98A7"/>
<path d="M307.678 277H306.529V269.398H306.481L303.337 276.932H302.298L299.153 269.398H299.105V277H297.957V267.136H299.386L302.79 275.366H302.845L306.249 267.136H307.678V277ZM311.547 276.111C312.668 276.111 313.529 275.325 313.529 274.3V273.719L311.629 273.835C310.672 273.896 310.125 274.32 310.125 274.99C310.125 275.667 310.692 276.111 311.547 276.111ZM311.28 277.123C309.865 277.123 308.915 276.269 308.915 274.99C308.915 273.773 309.852 273.008 311.492 272.912L313.529 272.796V272.201C313.529 271.333 312.955 270.813 311.971 270.813C311.055 270.813 310.48 271.244 310.33 271.941H309.182C309.264 270.711 310.316 269.768 311.998 269.768C313.666 269.768 314.719 270.67 314.719 272.085V277H313.591V275.776H313.563C313.14 276.59 312.237 277.123 311.28 277.123ZM316.817 279.659C316.674 279.659 316.435 279.646 316.305 279.618V278.62C316.435 278.647 316.619 278.654 316.77 278.654C317.433 278.654 317.802 278.333 318.075 277.506L318.239 277.007L315.614 269.891H316.886L318.854 275.811H318.875L320.844 269.891H322.095L319.299 277.499C318.69 279.16 318.103 279.659 316.817 279.659Z" fill="#8E98A7"/>
<path d="M362.287 274.683H363.511C363.538 275.517 364.174 276.098 365.069 276.098C366.156 276.098 366.744 275.448 366.744 274.245V267.136H367.975V274.252C367.975 276.125 366.895 277.232 365.076 277.232C363.436 277.232 362.287 276.18 362.287 274.683ZM375.542 269.891V277H374.414V275.845H374.387C373.963 276.665 373.225 277.123 372.131 277.123C370.579 277.123 369.67 276.118 369.67 274.505V269.891H370.859V274.293C370.859 275.448 371.399 276.07 372.5 276.07C373.655 276.07 374.353 275.277 374.353 274.067V269.891H375.542ZM377.087 277V269.891H378.208V271.025H378.235C378.632 270.26 379.391 269.768 380.491 269.768C382.05 269.768 382.952 270.772 382.952 272.386V277H381.763V272.598C381.763 271.449 381.223 270.82 380.129 270.82C379.008 270.82 378.276 271.613 378.276 272.816V277H377.087Z" fill="#8E98A7"/>
<path d="M4.70312 249.937H3.78711V249.021C1.94141 248.884 0.724609 247.824 0.717773 246.3H1.88672C1.96191 247.216 2.65918 247.824 3.78711 247.961V244.406L3.24023 244.256C1.77734 243.873 0.957031 242.978 0.957031 241.706C0.957031 240.209 2.04395 239.19 3.78711 239.02V238.062H4.70312V239.013C6.41211 239.156 7.5332 240.216 7.58105 241.692H6.41895C6.3916 240.845 5.71484 240.195 4.70312 240.072V243.415L5.28418 243.559C6.95215 244.003 7.75195 244.83 7.75195 246.211C7.75195 247.831 6.62402 248.856 4.70312 249.014V249.937ZM6.56934 246.307C6.56934 245.404 5.99512 244.864 4.70312 244.591V247.981C5.89258 247.92 6.56934 247.305 6.56934 246.307ZM2.13281 241.638C2.13281 242.451 2.70703 242.991 3.78711 243.217V240.072C2.83008 240.127 2.13281 240.776 2.13281 241.638ZM12.667 249.164C10.7803 249.164 9.38574 247.988 9.2832 246.307H10.4932C10.6025 247.359 11.498 248.084 12.6807 248.084C14.0205 248.084 14.9502 247.154 14.9502 245.828C14.9502 244.502 14.0137 243.552 12.7012 243.552C11.7783 243.552 10.9922 243.969 10.5889 244.659H9.43359L9.97363 239.136H15.6201V240.229H10.9854L10.6846 243.442H10.7119C11.1562 242.848 11.9766 242.492 12.9199 242.492C14.8135 242.492 16.1807 243.88 16.1807 245.794C16.1807 247.776 14.7246 249.164 12.667 249.164ZM20.918 249.164C18.6143 249.164 17.2812 247.182 17.2812 244.064C17.2812 240.975 18.6279 238.972 20.918 238.972C23.208 238.972 24.541 240.961 24.541 244.058C24.541 247.175 23.2148 249.164 20.918 249.164ZM20.918 248.091C22.4561 248.091 23.3037 246.525 23.3037 244.064C23.3037 241.638 22.4424 240.052 20.918 240.052C19.3936 240.052 18.5186 241.651 18.5186 244.058C18.5186 246.519 19.373 248.091 20.918 248.091Z" fill="#8E98A7"/>
<path d="M4.70312 202.937H3.78711V202.021C1.94141 201.884 0.724609 200.824 0.717773 199.3H1.88672C1.96191 200.216 2.65918 200.824 3.78711 200.961V197.406L3.24023 197.256C1.77734 196.873 0.957031 195.978 0.957031 194.706C0.957031 193.209 2.04395 192.19 3.78711 192.02V191.062H4.70312V192.013C6.41211 192.156 7.5332 193.216 7.58105 194.692H6.41895C6.3916 193.845 5.71484 193.195 4.70312 193.072V196.415L5.28418 196.559C6.95215 197.003 7.75195 197.83 7.75195 199.211C7.75195 200.831 6.62402 201.856 4.70312 202.014V202.937ZM6.56934 199.307C6.56934 198.404 5.99512 197.864 4.70312 197.591V200.981C5.89258 200.92 6.56934 200.305 6.56934 199.307ZM2.13281 194.638C2.13281 195.451 2.70703 195.991 3.78711 196.217V193.072C2.83008 193.127 2.13281 193.776 2.13281 194.638ZM11.792 202V193.441H11.7646L9.15332 195.321V194.022L11.7783 192.136H12.9814V202H11.792ZM18.9355 202.164C16.6318 202.164 15.2988 200.182 15.2988 197.064C15.2988 193.975 16.6455 191.972 18.9355 191.972C21.2256 191.972 22.5586 193.961 22.5586 197.058C22.5586 200.175 21.2324 202.164 18.9355 202.164ZM18.9355 201.091C20.4736 201.091 21.3213 199.525 21.3213 197.064C21.3213 194.638 20.46 193.052 18.9355 193.052C17.4111 193.052 16.5361 194.651 16.5361 197.058C16.5361 199.519 17.3906 201.091 18.9355 201.091ZM27.4258 202.164C25.1221 202.164 23.7891 200.182 23.7891 197.064C23.7891 193.975 25.1357 191.972 27.4258 191.972C29.7158 191.972 31.0488 193.961 31.0488 197.058C31.0488 200.175 29.7227 202.164 27.4258 202.164ZM27.4258 201.091C28.9639 201.091 29.8115 199.525 29.8115 197.064C29.8115 194.638 28.9502 193.052 27.4258 193.052C25.9014 193.052 25.0264 194.651 25.0264 197.058C25.0264 199.519 25.8809 201.091 27.4258 201.091Z" fill="#8E98A7"/>
<path d="M4.70312 155.937H3.78711V155.021C1.94141 154.884 0.724609 153.824 0.717773 152.3H1.88672C1.96191 153.216 2.65918 153.824 3.78711 153.961V150.406L3.24023 150.256C1.77734 149.873 0.957031 148.978 0.957031 147.706C0.957031 146.209 2.04395 145.19 3.78711 145.02V144.062H4.70312V145.013C6.41211 145.156 7.5332 146.216 7.58105 147.692H6.41895C6.3916 146.845 5.71484 146.195 4.70312 146.072V149.415L5.28418 149.559C6.95215 150.003 7.75195 150.83 7.75195 152.211C7.75195 153.831 6.62402 154.856 4.70312 155.014V155.937ZM6.56934 152.307C6.56934 151.404 5.99512 150.864 4.70312 150.591V153.981C5.89258 153.92 6.56934 153.305 6.56934 152.307ZM2.13281 147.638C2.13281 148.451 2.70703 148.991 3.78711 149.217V146.072C2.83008 146.127 2.13281 146.776 2.13281 147.638ZM12.667 155.164C10.7803 155.164 9.38574 153.988 9.2832 152.307H10.4932C10.6025 153.359 11.498 154.084 12.6807 154.084C14.0205 154.084 14.9502 153.154 14.9502 151.828C14.9502 150.502 14.0137 149.552 12.7012 149.552C11.7783 149.552 10.9922 149.969 10.5889 150.659H9.43359L9.97363 145.136H15.6201V146.229H10.9854L10.6846 149.442H10.7119C11.1562 148.848 11.9766 148.492 12.9199 148.492C14.8135 148.492 16.1807 149.88 16.1807 151.794C16.1807 153.776 14.7246 155.164 12.667 155.164ZM20.918 155.164C18.6143 155.164 17.2812 153.182 17.2812 150.064C17.2812 146.975 18.6279 144.972 20.918 144.972C23.208 144.972 24.541 146.961 24.541 150.058C24.541 153.175 23.2148 155.164 20.918 155.164ZM20.918 154.091C22.4561 154.091 23.3037 152.525 23.3037 150.064C23.3037 147.638 22.4424 146.052 20.918 146.052C19.3936 146.052 18.5186 147.651 18.5186 150.058C18.5186 152.519 19.373 154.091 20.918 154.091ZM29.4082 155.164C27.1045 155.164 25.7715 153.182 25.7715 150.064C25.7715 146.975 27.1182 144.972 29.4082 144.972C31.6982 144.972 33.0312 146.961 33.0312 150.058C33.0312 153.175 31.7051 155.164 29.4082 155.164ZM29.4082 154.091C30.9463 154.091 31.7939 152.525 31.7939 150.064C31.7939 147.638 30.9326 146.052 29.4082 146.052C27.8838 146.052 27.0088 147.651 27.0088 150.058C27.0088 152.519 27.8633 154.091 29.4082 154.091Z" fill="#8E98A7"/>
<path d="M4.70312 108.937H3.78711V108.021C1.94141 107.884 0.724609 106.824 0.717773 105.3H1.88672C1.96191 106.216 2.65918 106.824 3.78711 106.961V103.406L3.24023 103.256C1.77734 102.873 0.957031 101.978 0.957031 100.706C0.957031 99.209 2.04395 98.1904 3.78711 98.0195V97.0625H4.70312V98.0127C6.41211 98.1562 7.5332 99.2158 7.58105 100.692H6.41895C6.3916 99.8447 5.71484 99.1953 4.70312 99.0723V102.415L5.28418 102.559C6.95215 103.003 7.75195 103.83 7.75195 105.211C7.75195 106.831 6.62402 107.856 4.70312 108.014V108.937ZM6.56934 105.307C6.56934 104.404 5.99512 103.864 4.70312 103.591V106.981C5.89258 106.92 6.56934 106.305 6.56934 105.307ZM2.13281 100.638C2.13281 101.451 2.70703 101.991 3.78711 102.217V99.0723C2.83008 99.127 2.13281 99.7764 2.13281 100.638ZM9.84375 108L14.3076 99.2568V99.2295H8.99609V98.1357H15.5244V99.2773L11.1357 108H9.84375ZM20.248 108.164C17.9443 108.164 16.6113 106.182 16.6113 103.064C16.6113 99.9746 17.958 97.9717 20.248 97.9717C22.5381 97.9717 23.8711 99.9609 23.8711 103.058C23.8711 106.175 22.5449 108.164 20.248 108.164ZM20.248 107.091C21.7861 107.091 22.6338 105.525 22.6338 103.064C22.6338 100.638 21.7725 99.0518 20.248 99.0518C18.7236 99.0518 17.8486 100.651 17.8486 103.058C17.8486 105.519 18.7031 107.091 20.248 107.091ZM28.7383 108.164C26.4346 108.164 25.1016 106.182 25.1016 103.064C25.1016 99.9746 26.4482 97.9717 28.7383 97.9717C31.0283 97.9717 32.3613 99.9609 32.3613 103.058C32.3613 106.175 31.0352 108.164 28.7383 108.164ZM28.7383 107.091C30.2764 107.091 31.124 105.525 31.124 103.064C31.124 100.638 30.2627 99.0518 28.7383 99.0518C27.2139 99.0518 26.3389 100.651 26.3389 103.058C26.3389 105.519 27.1934 107.091 28.7383 107.091Z" fill="#8E98A7"/>
<path d="M4.70312 61.9365H3.78711V61.0205C1.94141 60.8838 0.724609 59.8242 0.717773 58.2998H1.88672C1.96191 59.2158 2.65918 59.8242 3.78711 59.9609V56.4062L3.24023 56.2559C1.77734 55.873 0.957031 54.9775 0.957031 53.7061C0.957031 52.209 2.04395 51.1904 3.78711 51.0195V50.0625H4.70312V51.0127C6.41211 51.1562 7.5332 52.2158 7.58105 53.6924H6.41895C6.3916 52.8447 5.71484 52.1953 4.70312 52.0723V55.415L5.28418 55.5586C6.95215 56.0029 7.75195 56.8301 7.75195 58.2109C7.75195 59.8311 6.62402 60.8564 4.70312 61.0137V61.9365ZM6.56934 58.3066C6.56934 57.4043 5.99512 56.8643 4.70312 56.5908V59.9814C5.89258 59.9199 6.56934 59.3047 6.56934 58.3066ZM2.13281 53.6377C2.13281 54.4512 2.70703 54.9912 3.78711 55.2168V52.0723C2.83008 52.127 2.13281 52.7764 2.13281 53.6377ZM11.792 61V52.4414H11.7646L9.15332 54.3213V53.0225L11.7783 51.1357H12.9814V61H11.792ZM16.707 57.0488L19.8516 53.8906H21.2939L18.2109 56.96L21.3896 61H20.0088L17.3701 57.6914L16.707 58.3203V61H15.5176V51.1357H16.707V57.0488Z" fill="#8E98A7"/>
<path d="M64 179.299V179.299C67.1753 174.874 71.5777 170.83 77.0237 170.772C81.7749 170.722 87.5238 172.636 93.2727 180.184C103.03 192.995 112.788 207.124 122.545 221.383C132.303 235.642 142.061 235.119 151.818 218.409C157.039 209.468 162.26 195.892 167.48 186.576C173.604 175.648 183.995 190.139 195.986 186.513C200.84 185.045 205.152 181.637 210.364 188.568C220.121 201.546 229.879 168.657 239.636 163.379C249.394 158.101 259.152 172.434 268.909 169.666C278.667 166.898 288.424 147.028 298.182 137.502C307.939 127.976 317.697 128.793 327.455 140.772C337.212 152.751 346.97 175.892 356.727 188.601C366.485 201.309 376.242 202.585 381.121 203.723L386 204.861" stroke="#ABE85F" stroke-width="2.5" stroke-linecap="round"/>
<path d="M70 114.438L74.8788 112.729C79.7576 111.02 89.5152 107.602 99.2727 120.413C109.03 133.224 118.788 162.264 128.545 176.522C138.303 190.781 148.061 190.258 157.818 173.548C167.576 156.837 177.333 123.938 187.091 132.911C196.848 141.884 206.606 192.729 216.364 205.707C226.121 218.685 235.879 193.796 245.636 188.518C255.394 183.24 265.152 197.573 274.909 194.805C284.667 192.037 294.424 172.168 304.182 162.642C313.939 153.116 323.697 153.932 333.455 165.912C343.212 177.891 352.97 201.032 362.727 213.74C372.485 226.449 382.242 228.724 387.121 229.862L396 231" stroke="#3183FF" stroke-width="2.5" stroke-linecap="round"/>
<path d="M6.6709 22H1.05469V9.31738H6.57422C8.95605 9.31738 10.4502 10.5391 10.4502 12.4814C10.4502 13.8701 9.41309 15.0303 8.06836 15.2324V15.3027C9.79102 15.4346 11.0566 16.6914 11.0566 18.3701C11.0566 20.6025 9.37793 22 6.6709 22ZM3.70898 11.2949V14.5908H5.61621C7.03125 14.5908 7.83984 13.9668 7.83984 12.8945C7.83984 11.875 7.12793 11.2949 5.88867 11.2949H3.70898ZM3.70898 20.0225H5.99414C7.52344 20.0225 8.34961 19.3721 8.34961 18.1592C8.34961 16.9727 7.49707 16.3398 5.93262 16.3398H3.70898V20.0225ZM15.9873 20.2949C17.1035 20.2949 18.0264 19.5654 18.0264 18.5459V17.8604L16.04 17.9834C15.082 18.0537 14.5371 18.4844 14.5371 19.1523C14.5371 19.8555 15.1172 20.2949 15.9873 20.2949ZM15.1436 22.1494C13.3506 22.1494 11.9883 20.9893 11.9883 19.293C11.9883 17.5791 13.3066 16.5859 15.6533 16.4453L18.0264 16.3047V15.6807C18.0264 14.8018 17.4111 14.292 16.4443 14.292C15.4863 14.292 14.8799 14.7666 14.7568 15.4609H12.4102C12.5068 13.6328 14.0625 12.376 16.5586 12.376C18.9756 12.376 20.5488 13.624 20.5488 15.5225V22H18.0703V20.5586H18.0176C17.4902 21.5605 16.3213 22.1494 15.1436 22.1494ZM22.2715 22V9.31738H24.8379V22H22.2715ZM30.208 20.2949C31.3242 20.2949 32.2471 19.5654 32.2471 18.5459V17.8604L30.2607 17.9834C29.3027 18.0537 28.7578 18.4844 28.7578 19.1523C28.7578 19.8555 29.3379 20.2949 30.208 20.2949ZM29.3643 22.1494C27.5713 22.1494 26.209 20.9893 26.209 19.293C26.209 17.5791 27.5273 16.5859 29.874 16.4453L32.2471 16.3047V15.6807C32.2471 14.8018 31.6318 14.292 30.665 14.292C29.707 14.292 29.1006 14.7666 28.9775 15.4609H26.6309C26.7275 13.6328 28.2832 12.376 30.7793 12.376C33.1963 12.376 34.7695 13.624 34.7695 15.5225V22H32.291V20.5586H32.2383C31.7109 21.5605 30.542 22.1494 29.3643 22.1494ZM36.4307 22V12.5781H38.9092V14.2568H38.9619C39.4629 13.0879 40.4561 12.4023 41.9062 12.4023C43.998 12.4023 45.1758 13.7207 45.1758 15.9268V22H42.6094V16.4629C42.6094 15.2324 42.0293 14.5293 40.8779 14.5293C39.7266 14.5293 38.9971 15.373 38.9971 16.5947V22H36.4307ZM55.3623 16.085H52.9805C52.8311 15.0918 52.1719 14.3887 51.1172 14.3887C49.8516 14.3887 49.0605 15.4609 49.0605 17.2803C49.0605 19.1348 49.8516 20.1895 51.126 20.1895C52.1543 20.1895 52.8223 19.5742 52.9805 18.5459H55.3711C55.2393 20.7695 53.5781 22.2021 51.0996 22.2021C48.2607 22.2021 46.459 20.3564 46.459 17.2803C46.459 14.2568 48.2607 12.376 51.082 12.376C53.6309 12.376 55.248 13.9492 55.3623 16.085ZM60.8379 14.2744C59.7129 14.2744 58.9043 15.127 58.8164 16.3047H62.8154C62.7627 15.1006 61.9805 14.2744 60.8379 14.2744ZM62.8506 19.1172H65.2061C64.9248 20.9629 63.2373 22.2021 60.9082 22.2021C58.0078 22.2021 56.2676 20.3477 56.2676 17.333C56.2676 14.3271 58.0254 12.376 60.8115 12.376C63.5537 12.376 65.2852 14.2305 65.2852 17.0957V17.8779H58.79V18.0361C58.79 19.3809 59.6426 20.3037 60.9521 20.3037C61.8926 20.3037 62.6133 19.8379 62.8506 19.1172ZM76.1221 9.09766C79.875 9.09766 82.2393 11.6201 82.2393 15.6631C82.2393 19.6973 79.875 22.2197 76.1221 22.2197C72.3604 22.2197 70.0049 19.6973 70.0049 15.6631C70.0049 11.6201 72.3604 9.09766 76.1221 9.09766ZM76.1221 11.3125C74.0479 11.3125 72.7119 13 72.7119 15.6631C72.7119 18.3174 74.0391 19.9961 76.1221 19.9961C78.1963 19.9961 79.5234 18.3174 79.5234 15.6631C79.5234 13 78.1963 11.3125 76.1221 11.3125ZM92.3467 12.5781L89.1123 22H86.2119L82.9512 12.5781H85.7021L87.6621 19.7324H87.7148L89.666 12.5781H92.3467ZM97.207 14.2744C96.082 14.2744 95.2734 15.127 95.1855 16.3047H99.1846C99.1318 15.1006 98.3496 14.2744 97.207 14.2744ZM99.2197 19.1172H101.575C101.294 20.9629 99.6064 22.2021 97.2773 22.2021C94.377 22.2021 92.6367 20.3477 92.6367 17.333C92.6367 14.3271 94.3945 12.376 97.1807 12.376C99.9229 12.376 101.654 14.2305 101.654 17.0957V17.8779H95.1592V18.0361C95.1592 19.3809 96.0117 20.3037 97.3213 20.3037C98.2617 20.3037 98.9824 19.8379 99.2197 19.1172ZM102.981 22V12.5781H105.46V14.2744H105.513C105.847 13.0791 106.646 12.4287 107.754 12.4287C108.053 12.4287 108.308 12.4727 108.483 12.5254V14.7842C108.272 14.6963 107.921 14.6348 107.552 14.6348C106.286 14.6348 105.548 15.4082 105.548 16.7354V22H102.981ZM118.151 12.5781L114.917 22H112.017L108.756 12.5781H111.507L113.467 19.7324H113.52L115.471 12.5781H118.151ZM119.092 22V12.5781H121.658V22H119.092ZM120.375 11.541C119.602 11.541 119.004 10.9521 119.004 10.2139C119.004 9.4668 119.602 8.88672 120.375 8.88672C121.148 8.88672 121.746 9.4668 121.746 10.2139C121.746 10.9521 121.148 11.541 120.375 11.541ZM127.6 14.2744C126.475 14.2744 125.666 15.127 125.578 16.3047H129.577C129.524 15.1006 128.742 14.2744 127.6 14.2744ZM129.612 19.1172H131.968C131.687 20.9629 129.999 22.2021 127.67 22.2021C124.77 22.2021 123.029 20.3477 123.029 17.333C123.029 14.3271 124.787 12.376 127.573 12.376C130.315 12.376 132.047 14.2305 132.047 17.0957V17.8779H125.552V18.0361C125.552 19.3809 126.404 20.3037 127.714 20.3037C128.654 20.3037 129.375 19.8379 129.612 19.1172ZM146.54 12.5781L144.044 22H141.311L139.605 15.3379H139.553L137.856 22H135.158L132.653 12.5781H135.237L136.661 19.5654H136.714L138.384 12.5781H140.845L142.523 19.5654H142.576L144.009 12.5781H146.54Z" fill="#233145"/>
<rect x="308" width="84" height="31" rx="8" fill="#3183FF"/>
<path d="M363.998 14L367.998 18L371.998 14" stroke="white" stroke-width="1.5" stroke-linecap="round" stroke-linejoin="round"/>
<path d="M329.334 20H328.133V13.7773H328.092L325.543 19.9355H324.57L322.016 13.7773H321.975V20H320.779V11.5449H322.297L325.033 18.2188H325.08L327.811 11.5449H329.334V20ZM333.389 20.1172C331.625 20.1172 330.465 18.9043 330.465 16.918C330.465 14.9375 331.631 13.7246 333.389 13.7246C335.146 13.7246 336.312 14.9375 336.312 16.918C336.312 18.9043 335.152 20.1172 333.389 20.1172ZM333.389 19.0742C334.385 19.0742 335.023 18.2891 335.023 16.918C335.023 15.5527 334.379 14.7676 333.389 14.7676C332.398 14.7676 331.754 15.5527 331.754 16.918C331.754 18.2891 332.398 19.0742 333.389 19.0742ZM337.291 20V13.8359H338.498V14.8672H338.527C338.861 14.1641 339.518 13.7305 340.467 13.7305C341.826 13.7305 342.605 14.5977 342.605 16.0098V20H341.334V16.2559C341.334 15.3301 340.9 14.8203 340.021 14.8203C339.131 14.8203 338.557 15.4531 338.557 16.4082V20H337.291ZM344.199 12.377H345.471V13.8359H346.643V14.8379H345.471V18.2363C345.471 18.7695 345.705 19.0098 346.221 19.0098C346.35 19.0098 346.555 18.998 346.637 18.9805V19.9824C346.496 20.0176 346.215 20.041 345.934 20.041C344.686 20.041 344.199 19.5664 344.199 18.377V14.8379H343.303V13.8359H344.199V12.377ZM347.732 20V11.5449H348.986V14.8672H349.016C349.355 14.1465 350.029 13.7305 350.967 13.7305C352.32 13.7305 353.129 14.6328 353.129 16.0273V20H351.857V16.2734C351.857 15.3652 351.4 14.8203 350.51 14.8203C349.572 14.8203 348.998 15.4648 348.998 16.4375V20H347.732Z" fill="white"/>
</svg>
