<svg width="358" height="276" viewBox="0 0 358 276" fill="none" xmlns="http://www.w3.org/2000/svg">
<path d="M5.45037 16.1455H3.31048V7.68517H0.355739V5.92082H8.41219V7.68517H5.45037V16.1455ZM11.2323 16.3085C8.93654 16.3085 7.46979 14.8347 7.46979 12.3405C7.46979 9.88174 8.95779 8.38665 11.2323 8.38665C13.5068 8.38665 14.9948 9.87465 14.9948 12.3405C14.9948 14.8417 13.5281 16.3085 11.2323 16.3085ZM11.2323 14.7284C12.2456 14.7284 12.8904 13.871 12.8904 12.3476C12.8904 10.8383 12.2385 9.96677 11.2323 9.96677C10.2261 9.96677 9.56717 10.8383 9.56717 12.3476C9.56717 13.871 10.212 14.7284 11.2323 14.7284ZM16.6174 6.79945H18.6865V8.54962H20.0894V10.1085H18.6865V13.7435C18.6865 14.3245 18.9699 14.6008 19.5793 14.6008C19.7635 14.6008 19.9548 14.5867 20.0824 14.5654V16.0888C19.8698 16.1384 19.5155 16.1739 19.0974 16.1739C17.3118 16.1739 16.6174 15.5787 16.6174 14.0977V10.1085H15.5475V8.54962H16.6174V6.79945ZM24.0858 14.7709C24.9857 14.7709 25.7297 14.1828 25.7297 13.3608V12.8081L24.1283 12.9073C23.356 12.964 22.9166 13.3112 22.9166 13.8497C22.9166 14.4166 23.3843 14.7709 24.0858 14.7709ZM23.4056 16.266C21.9601 16.266 20.8618 15.3307 20.8618 13.9631C20.8618 12.5814 21.9246 11.7807 23.8165 11.6673L25.7297 11.554V11.0509C25.7297 10.3423 25.2337 9.93134 24.4542 9.93134C23.6819 9.93134 23.193 10.314 23.0938 10.8737H21.2019C21.2798 9.39991 22.534 8.38665 24.5464 8.38665C26.4949 8.38665 27.7633 9.39282 27.7633 10.9233V16.1455H25.7651V14.9835H25.7226C25.2974 15.7912 24.355 16.266 23.4056 16.266ZM29.1521 16.1455V5.92082H31.2211V16.1455H29.1521ZM37.8108 7.59305V10.8525H39.6531C40.7301 10.8525 41.3608 10.236 41.3608 9.22277C41.3608 8.23077 40.6947 7.59305 39.6318 7.59305H37.8108ZM37.8108 12.4043V16.1455H35.6709V5.92082H39.8586C42.211 5.92082 43.5573 7.16082 43.5573 9.18025C43.5573 10.4911 42.8771 11.6248 41.7009 12.0854L43.8549 16.1455H41.4316L39.5256 12.4043H37.8108ZM48.1276 9.91717C47.2206 9.91717 46.5688 10.6045 46.4979 11.554H49.7219C49.6794 10.5832 49.0488 9.91717 48.1276 9.91717ZM49.7502 13.8214H51.6492C51.4225 15.3094 50.062 16.3085 48.1843 16.3085C45.846 16.3085 44.443 14.8134 44.443 12.383C44.443 9.95968 45.8602 8.38665 48.1064 8.38665C50.3171 8.38665 51.713 9.88174 51.713 12.1917V12.8223H46.4766V12.9499C46.4766 14.034 47.164 14.778 48.2197 14.778C48.9779 14.778 49.5589 14.4024 49.7502 13.8214ZM59.6136 8.54962L57.006 16.1455H54.6677L52.0389 8.54962H54.2568L55.8369 14.3174H55.8794L57.4524 8.54962H59.6136ZM63.532 9.91717C62.625 9.91717 61.9731 10.6045 61.9022 11.554H65.1262C65.0837 10.5832 64.4531 9.91717 63.532 9.91717ZM65.1546 13.8214H67.0536C66.8268 15.3094 65.4664 16.3085 63.5886 16.3085C61.2504 16.3085 59.8474 14.8134 59.8474 12.383C59.8474 9.95968 61.2645 8.38665 63.5107 8.38665C65.7214 8.38665 67.1173 9.88174 67.1173 12.1917V12.8223H61.881V12.9499C61.881 14.034 62.5683 14.778 63.6241 14.778C64.3822 14.778 64.9633 14.4024 65.1546 13.8214ZM68.1873 16.1455V8.54962H70.1854V9.90299H70.2279C70.6318 8.9606 71.4325 8.40791 72.6017 8.40791C74.2881 8.40791 75.2375 9.47077 75.2375 11.2493V16.1455H73.1685V11.6815C73.1685 10.6895 72.7009 10.1227 71.7726 10.1227C70.8444 10.1227 70.2563 10.8029 70.2563 11.7878V16.1455H68.1873ZM83.5633 8.54962V16.1455H81.5651V14.778H81.5226C81.147 15.7345 80.396 16.2872 79.2481 16.2872C77.6042 16.2872 76.513 15.2173 76.513 13.4459V8.54962H78.582V13.0136C78.582 14.0269 79.0851 14.5654 79.9992 14.5654C80.9203 14.5654 81.4942 13.9064 81.4942 12.9003V8.54962H83.5633ZM88.3178 9.91717C87.4108 9.91717 86.7589 10.6045 86.6881 11.554H89.9121C89.8695 10.5832 89.2389 9.91717 88.3178 9.91717ZM89.9404 13.8214H91.8394C91.6126 15.3094 90.2522 16.3085 88.3745 16.3085C86.0362 16.3085 84.6332 14.8134 84.6332 12.383C84.6332 9.95968 86.0503 8.38665 88.2965 8.38665C90.5073 8.38665 91.9031 9.88174 91.9031 12.1917V12.8223H86.6668V12.9499C86.6668 14.034 87.3541 14.778 88.4099 14.778C89.1681 14.778 89.7491 14.4024 89.9404 13.8214Z" fill="#233145"/>
<path d="M3.80727 243.113H3.06878V242.374C1.58078 242.264 0.599803 241.41 0.594291 240.181H1.53669C1.59731 240.92 2.15945 241.41 3.06878 241.52V238.654L2.62789 238.533C1.44851 238.225 0.78718 237.503 0.78718 236.478C0.78718 235.271 1.66345 234.449 3.06878 234.312V233.54H3.80727V234.306C5.18505 234.422 6.08887 235.276 6.12745 236.467H5.19056C5.16851 235.783 4.62291 235.26 3.80727 235.16V237.855L4.27571 237.971C5.62042 238.329 6.26522 238.996 6.26522 240.109C6.26522 241.416 5.35589 242.242 3.80727 242.369V243.113ZM5.3118 240.187C5.3118 239.459 4.84887 239.024 3.80727 238.803V241.537C4.7662 241.487 5.3118 240.991 5.3118 240.187ZM1.73509 236.422C1.73509 237.078 2.19802 237.514 3.06878 237.696V235.16C2.29722 235.204 1.73509 235.728 1.73509 236.422ZM10.2277 242.49C8.70664 242.49 7.58238 241.542 7.49971 240.187H8.47518C8.56336 241.035 9.28531 241.619 10.2387 241.619C11.3189 241.619 12.0684 240.87 12.0684 239.801C12.0684 238.732 11.3134 237.966 10.2553 237.966C9.51127 237.966 8.87749 238.302 8.55233 238.858H7.62096L8.05633 234.405H12.6085V235.287H8.87198L8.62949 237.877H8.65153C9.00976 237.398 9.67109 237.111 10.4316 237.111C11.9582 237.111 13.0604 238.23 13.0604 239.773C13.0604 241.371 11.8866 242.49 10.2277 242.49ZM16.8796 242.49C15.0224 242.49 13.9477 240.892 13.9477 238.379C13.9477 235.888 15.0334 234.273 16.8796 234.273C18.7258 234.273 19.8005 235.877 19.8005 238.373C19.8005 240.886 18.7314 242.49 16.8796 242.49ZM16.8796 241.625C18.1196 241.625 18.803 240.363 18.803 238.379C18.803 236.422 18.1086 235.144 16.8796 235.144C15.6506 235.144 14.9452 236.433 14.9452 238.373C14.9452 240.357 15.6341 241.625 16.8796 241.625Z" fill="#8E98A7"/>
<path d="M3.80727 197.657H3.06878V196.919C1.58078 196.808 0.599803 195.954 0.594291 194.725H1.53669C1.59731 195.464 2.15945 195.954 3.06878 196.064V193.199L2.62789 193.077C1.44851 192.769 0.78718 192.047 0.78718 191.022C0.78718 189.815 1.66345 188.994 3.06878 188.856V188.084H3.80727V188.85C5.18505 188.966 6.08887 189.82 6.12745 191.011H5.19056C5.16851 190.327 4.62291 189.804 3.80727 189.705V192.4L4.27571 192.515C5.62042 192.873 6.26522 193.54 6.26522 194.654C6.26522 195.96 5.35589 196.786 3.80727 196.913V197.657ZM5.3118 194.731C5.3118 194.003 4.84887 193.568 3.80727 193.347V196.081C4.7662 196.031 5.3118 195.535 5.3118 194.731ZM1.73509 190.967C1.73509 191.622 2.19802 192.058 3.06878 192.24V189.705C2.29722 189.749 1.73509 190.272 1.73509 190.967ZM9.52229 196.902V190.002H9.50024L7.395 191.518V190.471L9.51127 188.95H10.4812V196.902H9.52229ZM15.2814 197.034C13.4242 197.034 12.3495 195.436 12.3495 192.923C12.3495 190.432 13.4352 188.817 15.2814 188.817C17.1276 188.817 18.2023 190.421 18.2023 192.918C18.2023 195.431 17.1331 197.034 15.2814 197.034ZM15.2814 196.169C16.5214 196.169 17.2048 194.907 17.2048 192.923C17.2048 190.967 16.5104 189.688 15.2814 189.688C14.0524 189.688 13.347 190.978 13.347 192.918C13.347 194.902 14.0359 196.169 15.2814 196.169ZM22.1262 197.034C20.269 197.034 19.1943 195.436 19.1943 192.923C19.1943 190.432 20.28 188.817 22.1262 188.817C23.9724 188.817 25.0471 190.421 25.0471 192.918C25.0471 195.431 23.9779 197.034 22.1262 197.034ZM22.1262 196.169C23.3662 196.169 24.0496 194.907 24.0496 192.923C24.0496 190.967 23.3552 189.688 22.1262 189.688C20.8972 189.688 20.1918 190.978 20.1918 192.918C20.1918 194.902 20.8807 196.169 22.1262 196.169Z" fill="#8E98A7"/>
<path d="M3.80727 152.202H3.06878V151.463C1.58078 151.353 0.599803 150.499 0.594291 149.27H1.53669C1.59731 150.008 2.15945 150.499 3.06878 150.609V147.743L2.62789 147.622C1.44851 147.313 0.78718 146.591 0.78718 145.566C0.78718 144.359 1.66345 143.538 3.06878 143.4V142.629H3.80727V143.395C5.18505 143.511 6.08887 144.365 6.12745 145.555H5.19056C5.16851 144.872 4.62291 144.348 3.80727 144.249V146.944L4.27571 147.06C5.62042 147.418 6.26522 148.085 6.26522 149.198C6.26522 150.504 5.35589 151.331 3.80727 151.458V152.202ZM5.3118 149.275C5.3118 148.548 4.84887 148.112 3.80727 147.892V150.625C4.7662 150.576 5.3118 150.08 5.3118 149.275ZM1.73509 145.511C1.73509 146.167 2.19802 146.602 3.06878 146.784V144.249C2.29722 144.293 1.73509 144.817 1.73509 145.511ZM10.2277 151.579C8.70664 151.579 7.58238 150.631 7.49971 149.275H8.47518C8.56336 150.124 9.28531 150.708 10.2387 150.708C11.3189 150.708 12.0684 149.959 12.0684 148.889C12.0684 147.82 11.3134 147.054 10.2553 147.054C9.51127 147.054 8.87749 147.39 8.55233 147.947H7.62096L8.05633 143.494H12.6085V144.376H8.87198L8.62949 146.966H8.65153C9.00976 146.487 9.67109 146.2 10.4316 146.2C11.9582 146.2 13.0604 147.319 13.0604 148.862C13.0604 150.46 11.8866 151.579 10.2277 151.579ZM16.8796 151.579C15.0224 151.579 13.9477 149.981 13.9477 147.468C13.9477 144.976 15.0334 143.362 16.8796 143.362C18.7258 143.362 19.8005 144.965 19.8005 147.462C19.8005 149.975 18.7314 151.579 16.8796 151.579ZM16.8796 150.714C18.1196 150.714 18.803 149.452 18.803 147.468C18.803 145.511 18.1086 144.232 16.8796 144.232C15.6506 144.232 14.9452 145.522 14.9452 147.462C14.9452 149.446 15.6341 150.714 16.8796 150.714ZM23.7244 151.579C21.8672 151.579 20.7925 149.981 20.7925 147.468C20.7925 144.976 21.8782 143.362 23.7244 143.362C25.5706 143.362 26.6453 144.965 26.6453 147.462C26.6453 149.975 25.5761 151.579 23.7244 151.579ZM23.7244 150.714C24.9644 150.714 25.6478 149.452 25.6478 147.468C25.6478 145.511 24.9534 144.232 23.7244 144.232C22.4954 144.232 21.79 145.522 21.79 147.462C21.79 149.446 22.4789 150.714 23.7244 150.714Z" fill="#8E98A7"/>
<path d="M3.80727 106.746H3.06878V106.008C1.58078 105.897 0.599803 105.043 0.594291 103.814H1.53669C1.59731 104.553 2.15945 105.043 3.06878 105.153V102.288L2.62789 102.166C1.44851 101.858 0.78718 101.136 0.78718 100.111C0.78718 98.9037 1.66345 98.0825 3.06878 97.9447V97.1732H3.80727V97.9392C5.18505 98.055 6.08887 98.9092 6.12745 100.1H5.19056C5.16851 99.4162 4.62291 98.8927 3.80727 98.7935V101.488L4.27571 101.604C5.62042 101.962 6.26522 102.629 6.26522 103.742C6.26522 105.049 5.35589 105.875 3.80727 106.002V106.746ZM5.3118 103.82C5.3118 103.092 4.84887 102.657 3.80727 102.436V105.17C4.7662 105.12 5.3118 104.624 5.3118 103.82ZM1.73509 100.056C1.73509 100.711 2.19802 101.147 3.06878 101.329V98.7935C2.29722 98.8375 1.73509 99.3611 1.73509 100.056ZM7.95162 105.991L11.5504 98.9423V98.9202H7.26824V98.0384H12.5314V98.9588L8.99322 105.991H7.95162ZM16.3395 106.123C14.4823 106.123 13.4076 104.525 13.4076 102.012C13.4076 99.5209 14.4933 97.9062 16.3395 97.9062C18.1858 97.9062 19.2604 99.5099 19.2604 102.006C19.2604 104.52 18.1913 106.123 16.3395 106.123ZM16.3395 105.258C17.5795 105.258 18.2629 103.996 18.2629 102.012C18.2629 100.056 17.5685 98.7769 16.3395 98.7769C15.1106 98.7769 14.4051 100.067 14.4051 102.006C14.4051 103.99 15.094 105.258 16.3395 105.258ZM23.1843 106.123C21.3271 106.123 20.2524 104.525 20.2524 102.012C20.2524 99.5209 21.3381 97.9062 23.1843 97.9062C25.0305 97.9062 26.1052 99.5099 26.1052 102.006C26.1052 104.52 25.0361 106.123 23.1843 106.123ZM23.1843 105.258C24.4243 105.258 25.1077 103.996 25.1077 102.012C25.1077 100.056 24.4133 98.7769 23.1843 98.7769C21.9554 98.7769 21.2499 100.067 21.2499 102.006C21.2499 103.99 21.9388 105.258 23.1843 105.258Z" fill="#8E98A7"/>
<path d="M3.80727 61.2904H3.06878V60.5519C1.58078 60.4417 0.599803 59.5875 0.594291 58.3585H1.53669C1.59731 59.097 2.15945 59.5875 3.06878 59.6977V56.8319L2.62789 56.7107C1.44851 56.4021 0.78718 55.6801 0.78718 54.655C0.78718 53.4481 1.66345 52.627 3.06878 52.4892V51.7176H3.80727V52.4837C5.18505 52.5994 6.08887 53.4536 6.12745 54.644H5.19056C5.16851 53.9606 4.62291 53.4371 3.80727 53.3379V56.0328L4.27571 56.1486C5.62042 56.5068 6.26522 57.1736 6.26522 58.2869C6.26522 59.593 5.35589 60.4197 3.80727 60.5464V61.2904ZM5.3118 58.364C5.3118 57.6366 4.84887 57.2012 3.80727 56.9807V59.7142C4.7662 59.6646 5.3118 59.1686 5.3118 58.364ZM1.73509 54.5999C1.73509 55.2558 2.19802 55.6911 3.06878 55.873V53.3379C2.29722 53.382 1.73509 53.9055 1.73509 54.5999ZM9.52229 60.5354V53.6355H9.50024L7.395 55.151V54.1039L9.51127 52.5829H10.4812V60.5354H9.52229ZM13.4848 57.35L16.0199 54.8038H17.1827L14.6972 57.2783L17.2599 60.5354H16.1466L14.0194 57.868L13.4848 58.375V60.5354H12.5258V52.5829H13.4848V57.35Z" fill="#8E98A7"/>
<line x1="69.1126" y1="53.4041" x2="69.1126" y2="242.964" stroke="#F6F7FB" stroke-width="0.857997"/>
<line x1="137.174" y1="53.4041" x2="137.174" y2="242.964" stroke="#F6F7FB" stroke-width="0.857997"/>
<line x1="205.232" y1="53.4041" x2="205.232" y2="242.964" stroke="#F6F7FB" stroke-width="0.857997"/>
<line x1="273.292" y1="53.4041" x2="273.292" y2="242.964" stroke="#F6F7FB" stroke-width="0.857997"/>
<line x1="341.352" y1="53.4041" x2="341.352" y2="242.964" stroke="#F6F7FB" stroke-width="0.857997"/>
<line x1="68.6836" y1="52.9518" x2="614.151" y2="52.9518" stroke="#F6F7FB" stroke-width="0.904409"/>
<line x1="68.6836" y1="100.342" x2="613.163" y2="100.342" stroke="#F6F7FB" stroke-width="0.904409"/>
<line x1="68.6836" y1="147.732" x2="613.163" y2="147.732" stroke="#F6F7FB" stroke-width="0.904409"/>
<line x1="68.6836" y1="195.122" x2="613.163" y2="195.122" stroke="#F6F7FB" stroke-width="0.904409"/>
<line x1="68.6836" y1="242.511" x2="613.163" y2="242.511" stroke="#F6F7FB" stroke-width="0.904409"/>
<path d="M65.0459 268.537H66.0324C66.0545 269.209 66.567 269.677 67.2889 269.677C68.1652 269.677 68.6392 269.154 68.6392 268.184V262.452H69.6312V268.189C69.6312 269.699 68.7604 270.592 67.2945 270.592C65.9718 270.592 65.0459 269.743 65.0459 268.537ZM72.9158 269.688C73.8196 269.688 74.514 269.055 74.514 268.228V267.759L72.9819 267.853C72.2104 267.903 71.7695 268.244 71.7695 268.785C71.7695 269.33 72.2269 269.688 72.9158 269.688ZM72.7009 270.504C71.5601 270.504 70.794 269.815 70.794 268.785C70.794 267.804 71.549 267.186 72.8717 267.109L74.514 267.015V266.536C74.514 265.836 74.0511 265.417 73.2575 265.417C72.519 265.417 72.0561 265.764 71.9348 266.327H71.0089C71.0751 265.335 71.9238 264.574 73.2795 264.574C74.6242 264.574 75.4729 265.301 75.4729 266.442V270.405H74.5636V269.418H74.5416C74.1999 270.074 73.4724 270.504 72.7009 270.504ZM76.6909 270.405V264.673H77.5947V265.588H77.6168C77.9364 264.971 78.5481 264.574 79.4354 264.574C80.692 264.574 81.4194 265.384 81.4194 266.685V270.405H80.4605V266.856C80.4605 265.93 80.0251 265.423 79.1433 265.423C78.2395 265.423 77.6498 266.062 77.6498 267.032V270.405H76.6909Z" fill="#8E98A7"/>
<path d="M68.6836 157.855C68.6836 156.253 69.9826 154.954 71.585 154.954C73.1874 154.954 74.4864 156.253 74.4864 157.855V240.062C74.4864 241.664 73.1874 242.963 71.585 242.963C69.9826 242.963 68.6836 241.664 68.6836 240.062V157.855Z" fill="#3183FF"/>
<rect x="76.4199" y="183.001" width="5.80284" height="59.9627" rx="2.90142" fill="#ABE85F"/>
<path d="M222.361 270.405H221.435V264.276H221.397L218.862 270.35H218.024L215.489 264.276H215.45V270.405H214.524V262.452H215.676L218.421 269.088H218.465L221.209 262.452H222.361V270.405ZM225.481 269.688C226.384 269.688 227.079 269.055 227.079 268.228V267.759L225.547 267.853C224.775 267.903 224.334 268.244 224.334 268.785C224.334 269.33 224.792 269.688 225.481 269.688ZM225.266 270.504C224.125 270.504 223.359 269.815 223.359 268.785C223.359 267.804 224.114 267.186 225.436 267.109L227.079 267.015V266.536C227.079 265.836 226.616 265.417 225.822 265.417C225.084 265.417 224.621 265.764 224.5 266.327H223.574C223.64 265.335 224.489 264.574 225.844 264.574C227.189 264.574 228.038 265.301 228.038 266.442V270.405H227.128V269.418H227.106C226.765 270.074 226.037 270.504 225.266 270.504ZM229.256 270.405V264.673H230.16V265.61H230.182C230.369 264.976 230.898 264.574 231.57 264.574C231.736 264.574 231.879 264.602 231.956 264.613V265.544C231.879 265.516 231.675 265.489 231.444 265.489C230.7 265.489 230.215 266.023 230.215 266.834V270.405H229.256Z" fill="#8E98A7"/>
<rect x="217.622" y="158.822" width="5.80284" height="84.1412" rx="2.90142" fill="#3183FF"/>
<rect x="225.359" y="83.3853" width="5.80284" height="159.578" rx="2.90142" fill="#ABE85F"/>
<path d="M141.048 270.405H140.056V262.452H144.883V263.345H141.048V266.079H144.569V266.96H141.048V270.405ZM147.948 265.406C147.049 265.406 146.421 266.095 146.36 267.049H149.474C149.452 266.09 148.851 265.406 147.948 265.406ZM149.452 268.762H150.395C150.229 269.765 149.259 270.504 148.008 270.504C146.366 270.504 145.368 269.363 145.368 267.561C145.368 265.781 146.382 264.574 147.964 264.574C149.513 264.574 150.466 265.698 150.466 267.434V267.798H146.355V267.853C146.355 268.95 147 269.672 148.03 269.672C148.758 269.672 149.292 269.303 149.452 268.762ZM154.285 270.504C153.448 270.504 152.792 270.096 152.423 269.435H152.401V270.405H151.486V262.452H152.445V265.632H152.467C152.825 264.976 153.492 264.574 154.302 264.574C155.746 264.574 156.721 265.742 156.721 267.539C156.721 269.341 155.751 270.504 154.285 270.504ZM154.098 265.417C153.128 265.417 152.439 266.266 152.439 267.539C152.439 268.818 153.128 269.661 154.098 269.661C155.112 269.661 155.74 268.851 155.74 267.539C155.74 266.238 155.112 265.417 154.098 265.417Z" fill="#8E98A7"/>
<rect x="143.153" y="104.662" width="5.80284" height="138.301" rx="2.90142" fill="#3183FF"/>
<rect x="150.891" y="131.742" width="5.80284" height="111.221" rx="2.90142" fill="#ABE85F"/>
<path d="M295.106 270.405L294.378 268.255H291.347L290.62 270.405H289.336L292.207 262.452H293.541L296.412 270.405H295.106ZM292.846 263.775L291.661 267.263H294.064L292.879 263.775H292.846ZM300.165 264.513C301.636 264.513 302.606 265.671 302.606 267.506C302.606 269.341 301.642 270.504 300.187 270.504C299.355 270.504 298.694 270.096 298.363 269.451H298.335V272.323H297.145V264.607H298.297V265.605H298.319C298.66 264.938 299.327 264.513 300.165 264.513ZM299.851 269.495C300.793 269.495 301.383 268.724 301.383 267.506C301.383 266.293 300.793 265.516 299.851 265.516C298.942 265.516 298.33 266.31 298.33 267.506C298.33 268.713 298.936 269.495 299.851 269.495ZM303.527 270.405V264.607H304.662V265.594H304.69C304.883 264.916 305.401 264.513 306.084 264.513C306.255 264.513 306.404 264.541 306.492 264.557V265.665C306.398 265.627 306.189 265.599 305.957 265.599C305.191 265.599 304.717 266.112 304.717 266.933V270.405H303.527Z" fill="#3183FF"/>
<rect x="292.094" y="101.761" width="5.80284" height="141.203" rx="2.90142" fill="#3183FF"/>
<rect x="299.831" y="152.052" width="5.80284" height="90.9112" rx="2.90142" fill="#ABE85F"/>
<g filter="url(#filter0_d_32_1130)">
<path d="M323.04 54.3711H266.949C264.277 54.3711 262.111 56.5368 262.111 59.2083V87.3747C262.111 90.0462 264.277 92.2119 266.949 92.2119H291.264C291.58 92.2119 291.871 92.3854 292.02 92.6635L293.931 96.2182C294.54 97.35 296.163 97.35 296.772 96.2182L298.683 92.6635C298.832 92.3854 299.123 92.2119 299.439 92.2119H323.04C325.711 92.2119 327.877 90.0462 327.877 87.3747V59.2083C327.877 56.5368 325.711 54.3711 323.04 54.3711Z" fill="white"/>
</g>
<path d="M272.558 81.6562H272.03V81.1288C270.968 81.05 270.267 80.4399 270.263 79.562H270.936C270.979 80.0895 271.381 80.4399 272.03 80.5186V78.4716L271.716 78.385C270.873 78.1646 270.401 77.6489 270.401 76.9167C270.401 76.0546 271.027 75.4681 272.03 75.3696V74.8185H272.558V75.3657C273.542 75.4484 274.188 76.0585 274.215 76.9088H273.546C273.53 76.4207 273.141 76.0467 272.558 75.9759V77.9008L272.893 77.9835C273.853 78.2394 274.314 78.7157 274.314 79.5108C274.314 80.4438 273.664 81.0343 272.558 81.1248V81.6562ZM273.633 79.566C273.633 79.0463 273.302 78.7354 272.558 78.5779V80.5304C273.243 80.495 273.633 80.1407 273.633 79.566ZM271.078 76.8773C271.078 77.3458 271.408 77.6568 272.03 77.7867V75.9759C271.479 76.0074 271.078 76.3813 271.078 76.8773ZM276.553 81.1169V76.527H276.53L275.081 77.5268V76.4561L276.55 75.4366H277.73V81.1169H276.553ZM281.234 81.2429C279.856 81.2429 278.931 80.5619 278.931 79.5778C278.931 78.8298 279.474 78.2512 280.266 78.1213V78.0976C279.604 77.9441 279.159 77.4363 279.159 76.8104C279.159 75.9444 280.018 75.3106 281.234 75.3106C282.454 75.3106 283.305 75.9404 283.305 76.8143C283.305 77.4324 282.864 77.9402 282.202 78.0976V78.1213C282.998 78.2551 283.537 78.8338 283.537 79.5817C283.537 80.5658 282.6 81.2429 281.234 81.2429ZM281.234 80.3769C281.86 80.3769 282.293 80.0029 282.293 79.4912C282.293 78.9794 281.86 78.6055 281.234 78.6055C280.608 78.6055 280.171 78.9794 280.171 79.4912C280.171 80.0029 280.608 80.3769 281.234 80.3769ZM281.234 77.7394C281.758 77.7394 282.132 77.4088 282.132 76.9561C282.132 76.4994 281.758 76.1688 281.234 76.1688C280.706 76.1688 280.336 76.5034 280.336 76.9561C280.336 77.4088 280.706 77.7394 281.234 77.7394ZM285.021 82.3609H284.159L284.454 80.1407H285.548L285.021 82.3609ZM286.505 81.1169L288.95 76.4049V76.3813H286.06V75.4366H290.123V76.3931L287.753 81.1169H286.505ZM292.205 78.6369V77.7788H292.894C293.437 77.7788 293.803 77.456 293.803 76.9875C293.803 76.527 293.477 76.2239 292.886 76.2239C292.335 76.2239 291.969 76.5506 291.937 77.0466H290.843C290.886 75.9955 291.705 75.3106 292.937 75.3106C294.118 75.3106 294.925 75.9168 294.925 76.8262C294.925 77.5229 294.449 78.0268 293.752 78.1528V78.1764C294.598 78.2472 295.146 78.759 295.146 79.5463C295.146 80.5658 294.221 81.2429 292.91 81.2429C291.626 81.2429 290.788 80.5383 290.733 79.4912H291.87C291.906 79.9714 292.3 80.2863 292.925 80.2863C293.52 80.2863 293.937 79.9517 293.937 79.4715C293.937 78.9519 293.547 78.6369 292.906 78.6369H292.205ZM297.322 81.1169V76.527H297.299L295.85 77.5268V76.4561L297.319 75.4366H298.5V81.1169H297.322ZM300.393 81.1642C300.039 81.1642 299.759 80.8808 299.759 80.5304C299.759 80.1761 300.039 79.8966 300.393 79.8966C300.743 79.8966 301.027 80.1761 301.027 80.5304C301.027 80.8808 300.743 81.1642 300.393 81.1642ZM304.022 81.2429C302.593 81.2429 301.724 80.1053 301.724 78.2669C301.724 76.4325 302.601 75.3067 304.022 75.3067C305.444 75.3067 306.317 76.4286 306.317 78.263C306.317 80.0974 305.451 81.2429 304.022 81.2429ZM304.022 80.2903C304.7 80.2903 305.109 79.562 305.109 78.2669C305.109 76.9836 304.696 76.2593 304.022 76.2593C303.353 76.2593 302.932 76.9875 302.932 78.2669C302.932 79.5581 303.345 80.2903 304.022 80.2903ZM309.274 81.2429C307.845 81.2429 306.975 80.1053 306.975 78.2669C306.975 76.4325 307.853 75.3067 309.274 75.3067C310.695 75.3067 311.569 76.4286 311.569 78.263C311.569 80.0974 310.703 81.2429 309.274 81.2429ZM309.274 80.2903C309.951 80.2903 310.36 79.562 310.36 78.2669C310.36 76.9836 309.947 76.2593 309.274 76.2593C308.605 76.2593 308.183 76.9875 308.183 78.2669C308.183 79.5581 308.597 80.2903 309.274 80.2903Z" fill="#233145"/>
<path d="M281.016 66.5442V62.1762H282.492C282.833 62.1762 283.113 62.2345 283.332 62.3511C283.551 62.4663 283.714 62.6248 283.819 62.8267C283.924 63.0286 283.977 63.2582 283.977 63.5156C283.977 63.773 283.924 64.0012 283.819 64.2002C283.714 64.3993 283.552 64.5557 283.335 64.6695C283.117 64.7818 282.839 64.8379 282.501 64.8379H281.306V64.3602H282.484C282.717 64.3602 282.904 64.3261 283.047 64.2578C283.19 64.1896 283.294 64.0929 283.358 63.9678C283.423 63.8412 283.456 63.6905 283.456 63.5156C283.456 63.3407 283.423 63.1879 283.358 63.0571C283.293 62.9262 283.188 62.8253 283.045 62.7542C282.901 62.6817 282.711 62.6454 282.475 62.6454H281.545V66.5442H281.016ZM283.072 64.582L284.147 66.5442H283.533L282.475 64.582H283.072ZM286.128 66.6124C285.812 66.6124 285.54 66.5428 285.311 66.4034C285.084 66.2627 284.908 66.0664 284.784 65.8148C284.662 65.5617 284.601 65.2673 284.601 64.9318C284.601 64.5962 284.662 64.3005 284.784 64.0445C284.908 63.7872 285.08 63.5867 285.301 63.4431C285.522 63.2981 285.781 63.2255 286.077 63.2255C286.247 63.2255 286.416 63.254 286.582 63.3109C286.749 63.3677 286.9 63.4602 287.037 63.5881C287.173 63.7147 287.282 63.8824 287.363 64.0915C287.444 64.3005 287.485 64.5578 287.485 64.8635V65.0768H284.959V64.6417H286.973C286.973 64.4569 286.936 64.2919 286.862 64.1469C286.789 64.0019 286.685 63.8874 286.55 63.8035C286.417 63.7196 286.259 63.6777 286.077 63.6777C285.876 63.6777 285.703 63.7275 285.556 63.827C285.411 63.9251 285.3 64.0531 285.222 64.2109C285.143 64.3687 285.104 64.5379 285.104 64.7185V65.0086C285.104 65.256 285.147 65.4657 285.232 65.6377C285.319 65.8084 285.439 65.9385 285.593 66.0281C285.746 66.1162 285.925 66.1603 286.128 66.1603C286.26 66.1603 286.38 66.1418 286.486 66.1048C286.594 66.0664 286.688 66.0096 286.766 65.9342C286.844 65.8574 286.904 65.7622 286.947 65.6484L287.433 65.7849C287.382 65.9498 287.296 66.0949 287.175 66.22C287.054 66.3437 286.905 66.4404 286.727 66.5101C286.55 66.5783 286.35 66.6124 286.128 66.6124ZM290.829 63.2682L289.618 66.5442H289.106L287.895 63.2682H288.441L289.345 65.8788H289.379L290.283 63.2682H290.829ZM292.75 66.6124C292.434 66.6124 292.162 66.5428 291.933 66.4034C291.706 66.2627 291.53 66.0664 291.406 65.8148C291.284 65.5617 291.223 65.2673 291.223 64.9318C291.223 64.5962 291.284 64.3005 291.406 64.0445C291.53 63.7872 291.702 63.5867 291.922 63.4431C292.144 63.2981 292.403 63.2255 292.699 63.2255C292.869 63.2255 293.038 63.254 293.204 63.3109C293.371 63.3677 293.522 63.4602 293.658 63.5881C293.795 63.7147 293.904 63.8824 293.985 64.0915C294.066 64.3005 294.106 64.5578 294.106 64.8635V65.0768H291.581V64.6417H293.594C293.594 64.4569 293.557 64.2919 293.484 64.1469C293.411 64.0019 293.307 63.8874 293.172 63.8035C293.039 63.7196 292.881 63.6777 292.699 63.6777C292.498 63.6777 292.325 63.7275 292.178 63.827C292.033 63.9251 291.922 64.0531 291.843 64.2109C291.765 64.3687 291.726 64.5379 291.726 64.7185V65.0086C291.726 65.256 291.769 65.4657 291.854 65.6377C291.941 65.8084 292.061 65.9385 292.215 66.0281C292.368 66.1162 292.547 66.1603 292.75 66.1603C292.882 66.1603 293.002 66.1418 293.108 66.1048C293.216 66.0664 293.309 66.0096 293.388 65.9342C293.466 65.8574 293.526 65.7622 293.569 65.6484L294.055 65.7849C294.004 65.9498 293.918 66.0949 293.797 66.22C293.676 66.3437 293.527 66.4404 293.349 66.5101C293.171 66.5783 292.972 66.6124 292.75 66.6124ZM295.375 64.5735V66.5442H294.872V63.2682H295.358V63.7801H295.401C295.478 63.6137 295.594 63.4801 295.751 63.3791C295.907 63.2767 296.109 63.2255 296.356 63.2255C296.578 63.2255 296.772 63.271 296.939 63.362C297.105 63.4516 297.234 63.5881 297.327 63.7715C297.419 63.9535 297.466 64.1839 297.466 64.4626V66.5442H296.962V64.4967C296.962 64.2393 296.895 64.0389 296.762 63.8952C296.628 63.7502 296.445 63.6777 296.211 63.6777C296.051 63.6777 295.907 63.7125 295.781 63.7822C295.655 63.8519 295.557 63.9535 295.484 64.0872C295.412 64.2209 295.375 64.3829 295.375 64.5735ZM300.45 65.2048V63.2682H300.953V66.5442H300.45V65.9897H300.416C300.339 66.156 300.219 66.2975 300.057 66.4141C299.895 66.5293 299.691 66.5868 299.443 66.5868C299.238 66.5868 299.056 66.5421 298.897 66.4525C298.738 66.3615 298.613 66.225 298.522 66.043C298.431 65.8596 298.385 65.6285 298.385 65.3498V63.2682H298.889V65.3157C298.889 65.5546 298.955 65.7451 299.089 65.8873C299.224 66.0295 299.396 66.1006 299.605 66.1006C299.73 66.1006 299.858 66.0686 299.987 66.0046C300.118 65.9406 300.227 65.8425 300.315 65.7103C300.405 65.578 300.45 65.4095 300.45 65.2048ZM303.249 66.6124C302.933 66.6124 302.661 66.5428 302.432 66.4034C302.204 66.2627 302.029 66.0664 301.905 65.8148C301.783 65.5617 301.722 65.2673 301.722 64.9318C301.722 64.5962 301.783 64.3005 301.905 64.0445C302.029 63.7872 302.201 63.5867 302.421 63.4431C302.643 63.2981 302.902 63.2255 303.197 63.2255C303.368 63.2255 303.537 63.254 303.703 63.3109C303.869 63.3677 304.021 63.4602 304.157 63.5881C304.294 63.7147 304.402 63.8824 304.484 64.0915C304.565 64.3005 304.605 64.5578 304.605 64.8635V65.0768H302.08V64.6417H304.093C304.093 64.4569 304.056 64.2919 303.982 64.1469C303.91 64.0019 303.806 63.8874 303.671 63.8035C303.537 63.7196 303.379 63.6777 303.197 63.6777C302.997 63.6777 302.823 63.7275 302.677 63.827C302.532 63.9251 302.42 64.0531 302.342 64.2109C302.264 64.3687 302.225 64.5379 302.225 64.7185V65.0086C302.225 65.256 302.268 65.4657 302.353 65.6377C302.44 65.8084 302.56 65.9385 302.713 66.0281C302.867 66.1162 303.045 66.1603 303.249 66.1603C303.381 66.1603 303.5 66.1418 303.607 66.1048C303.715 66.0664 303.808 66.0096 303.886 65.9342C303.965 65.8574 304.025 65.7622 304.068 65.6484L304.554 65.7849C304.503 65.9498 304.417 66.0949 304.296 66.22C304.175 66.3437 304.026 66.4404 303.848 66.5101C303.67 66.5783 303.47 66.6124 303.249 66.6124Z" fill="#8E98A7"/>
<defs>
<filter id="filter0_d_32_1130" x="246.667" y="50.0811" width="96.6535" height="73.584" filterUnits="userSpaceOnUse" color-interpolation-filters="sRGB">
<feFlood flood-opacity="0" result="BackgroundImageFix"/>
<feColorMatrix in="SourceAlpha" type="matrix" values="0 0 0 0 0 0 0 0 0 0 0 0 0 0 0 0 0 0 127 0" result="hardAlpha"/>
<feOffset dy="11.154"/>
<feGaussianBlur stdDeviation="7.72198"/>
<feComposite in2="hardAlpha" operator="out"/>
<feColorMatrix type="matrix" values="0 0 0 0 0.922188 0 0 0 0 0.930475 0 0 0 0 0.945833 0 0 0 0.53 0"/>
<feBlend mode="normal" in2="BackgroundImageFix" result="effect1_dropShadow_32_1130"/>
<feBlend mode="normal" in="SourceGraphic" in2="effect1_dropShadow_32_1130" result="shape"/>
</filter>
</defs>
</svg>
