<svg width="26" height="26" viewBox="0 0 26 26" fill="none" xmlns="http://www.w3.org/2000/svg">
<g id="bi:apple" clip-path="url(#clip0_32_1065)">
<g id="Group">
<path id="Vector" d="M18.1706 0.0130114C18.1154 -0.0487386 16.1248 0.0373864 14.3925 1.91751C12.6603 3.79601 12.9268 5.95076 12.9658 6.00601C13.0048 6.06126 15.4358 6.14739 16.9876 3.96176C18.5395 1.77614 18.2259 0.0763864 18.1706 0.0130114ZM23.5559 19.0791C23.4779 18.9231 19.7778 17.0739 20.1223 13.5184C20.4668 9.96126 22.8441 8.98626 22.8815 8.88064C22.9189 8.77501 21.9114 7.59689 20.8438 7.00051C20.0599 6.58005 19.1923 6.33915 18.3039 6.29526C18.1284 6.29039 17.519 6.14089 16.2661 6.48376C15.4406 6.70964 13.58 7.44089 13.0681 7.47014C12.5546 7.49939 11.0271 6.62189 9.38425 6.38951C8.33288 6.18639 7.21813 6.60239 6.42025 6.92251C5.624 7.24101 4.1095 8.14776 3.05 10.5576C1.9905 12.9659 2.54463 16.7814 2.94113 17.9676C3.33763 19.1523 3.95675 21.0941 5.00975 22.5111C5.94575 24.1101 7.18725 25.22 7.70563 25.597C8.224 25.974 9.6865 26.2243 10.7005 25.7059C11.5163 25.2054 12.9885 24.9178 13.5703 24.9389C14.1504 24.96 15.2944 25.1891 16.466 25.8148C17.3939 26.1349 18.2714 26.0016 19.1505 25.6441C20.0296 25.285 21.302 23.9233 22.7873 21.1624C23.3511 19.8786 23.6079 19.1848 23.5559 19.0791Z" fill="#141736"/>
<path id="Vector_2" d="M18.1706 0.0130114C18.1154 -0.0487386 16.1248 0.0373864 14.3925 1.91751C12.6603 3.79601 12.9268 5.95076 12.9658 6.00601C13.0048 6.06126 15.4358 6.14739 16.9876 3.96176C18.5395 1.77614 18.2259 0.0763864 18.1706 0.0130114ZM23.5559 19.0791C23.4779 18.9231 19.7778 17.0739 20.1223 13.5184C20.4668 9.96126 22.8441 8.98626 22.8815 8.88064C22.9189 8.77501 21.9114 7.59689 20.8438 7.00051C20.0599 6.58005 19.1923 6.33915 18.3039 6.29526C18.1284 6.29039 17.519 6.14089 16.2661 6.48376C15.4406 6.70964 13.58 7.44089 13.0681 7.47014C12.5546 7.49939 11.0271 6.62189 9.38425 6.38951C8.33288 6.18639 7.21813 6.60239 6.42025 6.92251C5.624 7.24101 4.1095 8.14776 3.05 10.5576C1.9905 12.9659 2.54463 16.7814 2.94113 17.9676C3.33763 19.1523 3.95675 21.0941 5.00975 22.5111C5.94575 24.1101 7.18725 25.22 7.70563 25.597C8.224 25.974 9.6865 26.2243 10.7005 25.7059C11.5163 25.2054 12.9885 24.9178 13.5703 24.9389C14.1504 24.96 15.2944 25.1891 16.466 25.8148C17.3939 26.1349 18.2714 26.0016 19.1505 25.6441C20.0296 25.285 21.302 23.9233 22.7873 21.1624C23.3511 19.8786 23.6079 19.1848 23.5559 19.0791Z" fill="#141736"/>
</g>
</g>
<defs>
<clipPath id="clip0_32_1065">
<rect width="26" height="26" fill="white"/>
</clipPath>
</defs>
</svg>
