<svg width="558" height="19" viewBox="0 0 558 19" fill="none" xmlns="http://www.w3.org/2000/svg">
<path d="M557 9H311.344M1 9H246.656" stroke="#DFE5F1" stroke-width="1.5" stroke-linecap="round"/>
<path d="M274.123 3.53906C277.318 3.53906 279.318 5.78906 279.318 9.36719C279.318 12.9453 277.318 15.1875 274.123 15.1875C270.928 15.1875 268.928 12.9453 268.928 9.36719C268.928 5.78906 270.928 3.53906 274.123 3.53906ZM274.123 4.83594C271.818 4.83594 270.373 6.58594 270.373 9.36719C270.373 12.1406 271.818 13.8906 274.123 13.8906C276.428 13.8906 277.873 12.1406 277.873 9.36719C277.873 6.58594 276.428 4.83594 274.123 4.83594ZM282.635 4.97656V9.29688H285.33C286.775 9.29688 287.596 8.51562 287.596 7.13281C287.596 5.78125 286.721 4.97656 285.267 4.97656H282.635ZM282.635 10.5391V15H281.228V3.72656H285.455C287.627 3.72656 289.049 5.05469 289.049 7.08594C289.049 8.65625 288.197 9.875 286.783 10.3203L289.392 15H287.744L285.33 10.5391H282.635Z" fill="#141736"/>
</svg>
