<svg width="26" height="26" viewBox="0 0 26 26" fill="none" xmlns="http://www.w3.org/2000/svg">
<g id="Huge-icon/social/outline/twitter 3">
<path id="Vector" d="M16.5598 4.33325C14.2806 4.33325 12.433 6.27335 12.433 8.66659C12.433 9.02823 12.4752 9.37952 12.5547 9.71533C10.075 9.71533 6.175 9.14807 3.25 5.29621C3.25 14.9258 7.15 17.6542 9.1 17.8147C7.6375 19.2592 5.3587 20.3284 3.25 20.5294C4.15722 21.3531 6.9988 21.6307 8.30619 21.6666C15.0671 21.6666 20.5622 15.976 20.6845 8.9074C21.9812 8.06416 22.597 5.77816 22.75 5.29621C22.1183 5.95955 20.8 6.25918 19.7495 5.91688C18.9926 4.94996 17.8448 4.33325 16.5598 4.33325Z" fill="#1D9BF0"/>
</g>
</svg>
